<svg width="48" height="48" viewBox="0 0 48 48" fill="none" xmlns="http://www.w3.org/2000/svg">
<path d="M15.0338 24H7.7948C6.93733 24 6.50859 24 6.24363 24.2742C5.97868 24.5483 5.98887 24.9716 6.00925 25.8183C6.02999 26.6799 6.07933 27.5383 6.19664 28.3949C6.2451 28.7487 6.26932 28.9256 6.38541 29.0164C6.50149 29.1072 6.71214 29.0826 7.13344 29.0333C9.46882 28.7602 11.7233 30.6652 11.7233 33.1677C11.7233 34.4149 11.1853 35.534 10.3328 36.2977C10.0209 36.577 9.86501 36.7167 9.85388 36.8634C9.84276 37.0101 9.95527 37.1471 10.1803 37.4211C10.9963 38.4149 11.9138 39.3194 12.9165 40.118C13.1544 40.3074 13.2733 40.4021 13.4039 40.3984C13.5346 40.3946 13.668 40.2753 13.9348 40.0367C14.6553 39.3924 15.5998 39.0017 16.634 39.0017C18.8517 39.0017 20.6272 40.8586 20.7211 43.0108C20.7367 43.3679 20.7445 43.5465 20.8312 43.6435C20.9179 43.7405 21.066 43.7627 21.3623 43.807C23.0842 44.0643 24.9158 44.0643 26.6377 43.807C26.934 43.7627 27.0821 43.7405 27.1688 43.6435C27.2555 43.5465 27.2633 43.3679 27.2789 43.0108C27.3728 40.8586 29.1483 39.0017 31.366 39.0017C32.4002 39.0017 33.3447 39.3924 34.0652 40.0367C34.332 40.2753 34.4654 40.3946 34.5961 40.3984C34.7267 40.4021 34.8456 40.3074 35.0835 40.118C36.0862 39.3194 37.0037 38.4149 37.8197 37.4211C38.0447 37.1471 38.1572 37.0101 38.1461 36.8634C38.135 36.7167 37.9791 36.577 37.6672 36.2977C36.8147 35.5341 36.2767 34.4149 36.2767 33.1677C36.2767 30.6652 38.5312 28.7602 40.8666 29.0333C41.2879 29.0826 41.4985 29.1072 41.6146 29.0164C41.7307 28.9256 41.7549 28.7487 41.8034 28.3949C41.9207 27.5383 41.97 26.6799 41.9907 25.8183C42.0111 24.9716 42.0213 24.5483 41.7564 24.2742C41.4914 24 41.0627 24 40.2052 24H32.9662C32.5527 28.6726 28.6963 32.3343 24 32.3343C19.3037 32.3343 15.4473 28.6726 15.0338 24Z" stroke="#0A0A0B" stroke-width="1.5" stroke-linecap="round" stroke-linejoin="round"/>
<path d="M14 24H34" stroke="#0A0A0B" stroke-width="1.5" stroke-linecap="round" stroke-linejoin="round"/>
<path d="M24 24L24 12" stroke="#0A0A0B" stroke-width="1.5" stroke-linecap="round" stroke-linejoin="round"/>
<path d="M23.4824 15.4824C24.5799 12.4066 23.9344 8.88556 21.5244 6.4756C19.1144 4.06564 15.5934 3.42013 12.5176 4.5176C11.4201 7.59339 12.0656 11.1144 14.4756 13.5244C16.8856 15.9344 20.4066 16.5799 23.4824 15.4824Z" stroke="#0A0A0B" stroke-width="1.5" stroke-linecap="round" stroke-linejoin="round"/>
<path d="M24.4313 19.5687C23.5168 17.0055 24.0547 14.0713 26.063 12.063C28.0713 10.0547 31.0055 9.51677 33.5687 10.4313C34.4832 12.9945 33.9453 15.9287 31.937 17.937C29.9287 19.9453 26.9945 20.4832 24.4313 19.5687Z" stroke="#0A0A0B" stroke-width="1.5" stroke-linecap="round" stroke-linejoin="round"/>
</svg>
