<svg width="32" height="32" viewBox="0 0 32 32" fill="none" xmlns="http://www.w3.org/2000/svg">
<path d="M3.42935 10.9649C3.34962 10.3071 3.30976 9.97826 3.34809 9.70924C3.45973 8.92577 4.00914 8.284 4.7492 8.07259C5.00331 8 5.32472 8 5.96753 8H26.0326C26.6754 8 26.9968 8 27.2509 8.07259C27.9909 8.284 28.5404 8.92577 28.652 9.70924C28.6903 9.97826 28.6505 10.3071 28.5707 10.9649C28.3583 12.717 28.2521 13.593 27.9919 14.317C27.2387 16.4125 25.5174 17.9794 23.4076 18.4902C22.6786 18.6667 21.8225 18.6667 20.1101 18.6667H11.89C10.1776 18.6667 9.32144 18.6667 8.59252 18.4902C6.48268 17.9794 4.76137 16.4125 4.00816 14.317C3.74794 13.593 3.64174 12.717 3.42935 10.9649Z" stroke="#40C74F" stroke-width="2"/>
<path d="M16 14.6665H16.012" stroke="#40C74F" stroke-width="2" stroke-linecap="round" stroke-linejoin="round"/>
<path d="M4.66675 16L4.66675 20.0267C4.66675 24.0996 4.66675 26.1361 6.14206 27.4014C7.61738 28.6667 9.99186 28.6667 14.7408 28.6667H17.2593C22.0083 28.6667 24.3828 28.6667 25.8581 27.4014C27.3334 26.1361 27.3334 24.0996 27.3334 20.0267V16" stroke="#40C74F" stroke-width="2" stroke-linecap="round" stroke-linejoin="round"/>
<path d="M21.3334 7.99992L21.2157 7.58783C20.629 5.53444 20.3357 4.50774 19.6373 3.9205C18.9389 3.33325 18.0113 3.33325 16.156 3.33325H15.8441C13.9889 3.33325 13.0612 3.33325 12.3629 3.9205C11.6645 4.50774 11.3712 5.53444 10.7845 7.58783L10.6667 7.99992" stroke="#40C74F" stroke-width="2"/>
</svg>
