<svg width="32" height="32" viewBox="0 0 32 32" fill="none" xmlns="http://www.w3.org/2000/svg">
<path d="M12 26.6667C6.97193 25.5092 4 20.9031 4 16.6804C4 11.6594 8.49355 6.69764 11.6475 3.83341C13.3605 2.27786 15.9729 2.27786 17.6858 3.83342C19.6949 5.65792 22.0999 8.33353 23.6682 11.3334" stroke="#40C74F" stroke-width="2" stroke-linecap="round"/>
<path d="M22.6666 20.6667C20.6666 22.0001 17.3333 24.6667 14.6666 29.3334M17.3333 25.3334C13.7815 17.521 21.1129 14.9807 26.5665 14.6878C27.2246 14.6524 27.5536 14.6348 27.79 14.8627C28.0263 15.0906 28.0127 15.4156 27.9855 16.0654C27.7591 21.4691 25.3263 28.8092 17.3333 25.3334Z" stroke="#40C74F" stroke-width="2" stroke-linecap="round" stroke-linejoin="round"/>
</svg>
