<svg width="48" height="48" viewBox="0 0 48 48" fill="none" xmlns="http://www.w3.org/2000/svg">
<path d="M18.0732 21.733L20.1849 25.9915C20.4729 26.5842 21.2408 27.1528 21.8887 27.2617L25.7163 27.9029C28.164 28.3142 28.74 30.1047 26.9762 31.871L24.0005 34.8713C23.4966 35.3794 23.2206 36.3593 23.3766 37.061L24.2285 40.775C24.9004 43.7148 23.3526 44.852 20.7729 43.3155L17.1853 41.1742C16.5373 40.7871 15.4695 40.7871 14.8095 41.1742L11.2219 43.3155C8.65421 44.852 7.09438 43.7027 7.7663 40.775L8.61821 37.061C8.77419 36.3593 8.49822 35.3794 7.99428 34.8713L5.01861 31.871C3.2668 30.1047 3.83074 28.3142 6.27847 27.9029L10.106 27.2617C10.742 27.1528 11.5099 26.5842 11.7979 25.9915L13.9096 21.733C15.0615 19.4223 16.9333 19.4223 18.0732 21.733Z" stroke="#0A0A0B" stroke-width="1.5" stroke-linecap="round" stroke-linejoin="round"/>
<path d="M44 4L28 20M32 4L22 14M40 20L34 26" stroke="#0A0A0B" stroke-width="1.5" stroke-linecap="round"/>
</svg>
