<svg width="48" height="48" viewBox="0 0 48 48" fill="none" xmlns="http://www.w3.org/2000/svg">
<path d="M40 14C40 19.5228 35.5228 24 30 24C24.4772 24 20 19.5228 20 14C20 8.47715 24.4772 4 30 4C35.5228 4 40 8.47715 40 14Z" stroke="#0A0A0B" stroke-width="1.5"/>
<path d="M30.75 9L27 14H33L29.25 19" stroke="#0A0A0B" stroke-width="1.5" stroke-linecap="round" stroke-linejoin="round"/>
<path d="M8 28H12.7896C13.3779 28 13.9582 28.1325 14.4843 28.3871L18.5683 30.3631C19.0945 30.6177 19.6747 30.7503 20.263 30.7503H22.3483C24.3651 30.7503 26 32.3324 26 34.284C26 34.3629 25.946 34.4322 25.8676 34.4539L20.7857 35.8589C19.8741 36.1109 18.898 36.0232 18.05 35.6129L13.6842 33.5005M26 33L35.1855 30.1778C36.8139 29.6705 38.5742 30.2721 39.5942 31.6846C40.3317 32.7059 40.0314 34.1684 38.9569 34.7883L23.9258 43.4611C22.9697 44.0127 21.8419 44.1472 20.7903 43.8352L8 40.0399" stroke="#0A0A0B" stroke-width="1.5" stroke-linecap="round" stroke-linejoin="round"/>
</svg>
