<svg width="134" height="48" viewBox="0 0 134 48" fill="none" xmlns="http://www.w3.org/2000/svg">
<path d="M5.256 5.136H0.168V1.92H14.112V5.136H9.024V18H5.256V5.136ZM18.8739 5.112C19.7059 5.112 20.4579 5.28 21.1299 5.616C21.8179 5.952 22.3939 6.432 22.8579 7.056V5.328H26.4579V18H22.8579V16.296C22.4899 16.888 21.9459 17.36 21.2259 17.712C20.5219 18.048 19.7379 18.216 18.8739 18.216C18.0099 18.216 17.2099 18.056 16.4739 17.736C15.7539 17.4 15.1299 16.944 14.6019 16.368C14.0739 15.792 13.6579 15.104 13.3539 14.304C13.0659 13.504 12.9219 12.624 12.9219 11.664C12.9219 10.688 13.0659 9.8 13.3539 9C13.6419 8.184 14.0419 7.488 14.5539 6.912C15.0819 6.336 15.7139 5.896 16.4499 5.592C17.1859 5.272 17.9939 5.112 18.8739 5.112ZM19.7379 14.856C20.2019 14.856 20.6179 14.776 20.9859 14.616C21.3699 14.456 21.6979 14.24 21.9699 13.968C22.2579 13.68 22.4739 13.344 22.6179 12.96C22.7779 12.576 22.8579 12.152 22.8579 11.688C22.8579 10.744 22.5699 9.976 21.9939 9.384C21.4179 8.792 20.6659 8.496 19.7379 8.496C19.2899 8.496 18.8739 8.576 18.4899 8.736C18.1059 8.896 17.7699 9.12 17.4819 9.408C17.2099 9.68 16.9939 10.016 16.8339 10.416C16.6899 10.8 16.6179 11.224 16.6179 11.688C16.6179 12.136 16.6979 12.56 16.8579 12.96C17.0179 13.344 17.2339 13.68 17.5059 13.968C17.7779 14.24 18.1059 14.456 18.4899 14.616C18.8739 14.776 19.2899 14.856 19.7379 14.856ZM28.8204 0.719999H32.4204V9.552H33.5724L36.5964 5.328H40.6284L36.4524 11.16L41.1564 18H36.9324L33.6204 13.128H32.4204V18H28.8204V0.719999ZM46.4441 5.112C47.2761 5.112 48.0281 5.28 48.7001 5.616C49.3881 5.952 49.9641 6.432 50.4281 7.056V5.328H54.0281V18H50.4281V16.296C50.0601 16.888 49.5161 17.36 48.7961 17.712C48.0921 18.048 47.3081 18.216 46.4441 18.216C45.5801 18.216 44.7801 18.056 44.0441 17.736C43.3241 17.4 42.7001 16.944 42.1721 16.368C41.6441 15.792 41.2281 15.104 40.9241 14.304C40.6361 13.504 40.4921 12.624 40.4921 11.664C40.4921 10.688 40.6361 9.8 40.9241 9C41.2121 8.184 41.6121 7.488 42.1241 6.912C42.6521 6.336 43.2841 5.896 44.0201 5.592C44.7561 5.272 45.5641 5.112 46.4441 5.112ZM47.3081 14.856C47.7721 14.856 48.1881 14.776 48.5561 14.616C48.9401 14.456 49.2681 14.24 49.5401 13.968C49.8281 13.68 50.0441 13.344 50.1881 12.96C50.3481 12.576 50.4281 12.152 50.4281 11.688C50.4281 10.744 50.1401 9.976 49.5641 9.384C48.9881 8.792 48.2361 8.496 47.3081 8.496C46.8601 8.496 46.4441 8.576 46.0601 8.736C45.6761 8.896 45.3401 9.12 45.0521 9.408C44.7801 9.68 44.5641 10.016 44.4041 10.416C44.2601 10.8 44.1881 11.224 44.1881 11.688C44.1881 12.136 44.2681 12.56 44.4281 12.96C44.5881 13.344 44.8041 13.68 45.0761 13.968C45.3481 14.24 45.6761 14.456 46.0601 14.616C46.4441 14.776 46.8601 14.856 47.3081 14.856ZM55.8866 9.96C55.8866 8.808 56.0946 7.728 56.5106 6.72C56.9266 5.712 57.4946 4.84 58.2146 4.104C58.9506 3.352 59.8226 2.76 60.8306 2.328C61.8386 1.896 62.9346 1.68 64.1186 1.68C65.1746 1.68 66.1506 1.832 67.0466 2.136C67.9586 2.44 68.7586 2.88 69.4466 3.456C70.1506 4.016 70.7266 4.704 71.1746 5.52C71.6226 6.32 71.9186 7.216 72.0626 8.208H68.0546C67.7826 7.312 67.2786 6.608 66.5426 6.096C65.8226 5.568 65.0066 5.304 64.0946 5.304C63.4866 5.304 62.9186 5.424 62.3906 5.664C61.8626 5.904 61.4066 6.232 61.0226 6.648C60.6386 7.064 60.3346 7.56 60.1106 8.136C59.8866 8.696 59.7746 9.304 59.7746 9.96C59.7746 10.616 59.8866 11.232 60.1106 11.808C60.3346 12.368 60.6386 12.856 61.0226 13.272C61.4066 13.688 61.8626 14.016 62.3906 14.256C62.9186 14.496 63.4866 14.616 64.0946 14.616C65.0066 14.616 65.8226 14.36 66.5426 13.848C67.2786 13.32 67.7826 12.608 68.0546 11.712H72.0626C71.9186 12.704 71.6226 13.608 71.1746 14.424C70.7266 15.224 70.1506 15.912 69.4466 16.488C68.7586 17.048 67.9586 17.48 67.0466 17.784C66.1506 18.088 65.1746 18.24 64.1186 18.24C62.9346 18.24 61.8386 18.024 60.8306 17.592C59.8226 17.16 58.9506 16.576 58.2146 15.84C57.4946 15.088 56.9266 14.208 56.5106 13.2C56.0946 12.192 55.8866 11.112 55.8866 9.96ZM75.5533 22.68L77.3293 17.856L72.5053 5.328H76.2973L79.0333 13.032L81.8653 5.328H85.6333L78.9853 22.68H75.5533ZM85.5394 11.664C85.5394 10.704 85.6994 9.824 86.0194 9.024C86.3554 8.224 86.8194 7.536 87.4114 6.96C88.0034 6.368 88.7074 5.912 89.5234 5.592C90.3394 5.256 91.2274 5.088 92.1874 5.088C93.0834 5.088 93.9074 5.224 94.6594 5.496C95.4274 5.752 96.0914 6.12 96.6514 6.6C97.2114 7.08 97.6674 7.656 98.0194 8.328C98.3714 8.984 98.5794 9.712 98.6434 10.512H94.9474C94.7554 9.84 94.4194 9.328 93.9394 8.976C93.4754 8.624 92.9074 8.448 92.2354 8.448C91.2914 8.448 90.5554 8.752 90.0274 9.36C89.4994 9.968 89.2354 10.744 89.2354 11.688C89.2354 12.6 89.4914 13.36 90.0034 13.968C90.5314 14.576 91.2674 14.88 92.2114 14.88C92.8834 14.88 93.4514 14.704 93.9154 14.352C94.3794 14 94.7234 13.512 94.9474 12.888H98.6434C98.5634 13.672 98.3474 14.392 97.9954 15.048C97.6434 15.704 97.1874 16.272 96.6274 16.752C96.0674 17.216 95.4114 17.576 94.6594 17.832C93.9074 18.088 93.0834 18.216 92.1874 18.216C91.2274 18.216 90.3394 18.056 89.5234 17.736C88.7074 17.4 88.0034 16.944 87.4114 16.368C86.8194 15.792 86.3554 15.104 86.0194 14.304C85.6994 13.504 85.5394 12.624 85.5394 11.664ZM100.242 0.719999H103.842V18H100.242V0.719999ZM109.283 12.624C109.427 13.424 109.763 14.056 110.291 14.52C110.835 14.968 111.515 15.192 112.331 15.192C112.907 15.192 113.403 15.072 113.819 14.832C114.251 14.592 114.547 14.256 114.707 13.824H118.283C117.915 15.248 117.195 16.336 116.123 17.088C115.051 17.84 113.739 18.216 112.187 18.216C111.211 18.216 110.307 18.056 109.475 17.736C108.659 17.416 107.955 16.968 107.363 16.392C106.787 15.816 106.331 15.128 105.995 14.328C105.675 13.512 105.515 12.624 105.515 11.664C105.515 10.704 105.675 9.824 105.995 9.024C106.315 8.208 106.763 7.512 107.339 6.936C107.915 6.36 108.603 5.912 109.403 5.592C110.203 5.256 111.083 5.088 112.043 5.088C112.923 5.088 113.739 5.224 114.491 5.496C115.259 5.768 115.923 6.144 116.483 6.624C117.059 7.104 117.523 7.688 117.875 8.376C118.227 9.048 118.435 9.792 118.499 10.608C118.531 10.976 118.547 11.272 118.547 11.496C118.563 11.704 118.571 11.864 118.571 11.976C118.571 12.2 118.563 12.416 118.547 12.624H109.283ZM114.923 10.488C114.843 9.768 114.547 9.208 114.035 8.808C113.539 8.392 112.907 8.184 112.139 8.184C111.435 8.184 110.835 8.392 110.339 8.808C109.843 9.208 109.507 9.768 109.331 10.488H114.923Z" fill="#40C74F"/>
<path d="M1.68 30.92H5.472V47H1.68V30.92ZM8.15644 34.328H11.7564V36.008C12.2684 35.4 12.8684 34.928 13.5564 34.592C14.2444 34.256 14.9564 34.088 15.6924 34.088C16.3644 34.088 16.9724 34.208 17.5164 34.448C18.0764 34.688 18.5484 35.024 18.9324 35.456C19.3324 35.888 19.6444 36.4 19.8684 36.992C20.0924 37.584 20.2044 38.232 20.2044 38.936V47H16.6044V39.704C16.6044 39 16.4044 38.432 16.0044 38C15.6204 37.568 15.1004 37.352 14.4444 37.352C14.0764 37.352 13.7324 37.432 13.4124 37.592C13.0924 37.736 12.8124 37.944 12.5724 38.216C12.3324 38.488 12.1404 38.808 11.9964 39.176C11.8524 39.544 11.7724 39.944 11.7564 40.376V47H8.15644V34.328ZM22.4454 34.328H26.0454V36.008C26.5574 35.4 27.1574 34.928 27.8454 34.592C28.5334 34.256 29.2454 34.088 29.9814 34.088C30.6534 34.088 31.2614 34.208 31.8054 34.448C32.3654 34.688 32.8374 35.024 33.2214 35.456C33.6214 35.888 33.9334 36.4 34.1574 36.992C34.3814 37.584 34.4934 38.232 34.4934 38.936V47H30.8934V39.704C30.8934 39 30.6934 38.432 30.2934 38C29.9094 37.568 29.3894 37.352 28.7334 37.352C28.3654 37.352 28.0214 37.432 27.7014 37.592C27.3814 37.736 27.1014 37.944 26.8614 38.216C26.6214 38.488 26.4294 38.808 26.2854 39.176C26.1414 39.544 26.0614 39.944 26.0454 40.376V47H22.4454V34.328ZM42.7824 47.216C41.8064 47.216 40.9024 47.056 40.0704 46.736C39.2544 46.4 38.5504 45.944 37.9584 45.368C37.3664 44.792 36.9024 44.104 36.5664 43.304C36.2304 42.504 36.0624 41.624 36.0624 40.664C36.0624 39.704 36.2304 38.824 36.5664 38.024C36.9024 37.208 37.3664 36.512 37.9584 35.936C38.5664 35.36 39.2784 34.912 40.0944 34.592C40.9104 34.256 41.8064 34.088 42.7824 34.088C43.7584 34.088 44.6544 34.256 45.4704 34.592C46.3024 34.912 47.0144 35.36 47.6064 35.936C48.2144 36.512 48.6864 37.208 49.0224 38.024C49.3584 38.824 49.5264 39.704 49.5264 40.664C49.5264 41.624 49.3584 42.504 49.0224 43.304C48.6864 44.104 48.2144 44.792 47.6064 45.368C47.0144 45.944 46.3024 46.4 45.4704 46.736C44.6544 47.056 43.7584 47.216 42.7824 47.216ZM42.7824 37.52C42.3184 37.52 41.9024 37.6 41.5344 37.76C41.1664 37.92 40.8464 38.144 40.5744 38.432C40.3184 38.704 40.1184 39.032 39.9744 39.416C39.8304 39.8 39.7584 40.216 39.7584 40.664C39.7584 41.096 39.8304 41.504 39.9744 41.888C40.1184 42.272 40.3184 42.608 40.5744 42.896C40.8464 43.168 41.1664 43.384 41.5344 43.544C41.9024 43.704 42.3184 43.784 42.7824 43.784C43.7264 43.784 44.4624 43.488 44.9904 42.896C45.5344 42.288 45.8064 41.544 45.8064 40.664C45.8064 39.768 45.5344 39.024 44.9904 38.432C44.4624 37.824 43.7264 37.52 42.7824 37.52ZM54.1084 47L49.3804 34.328H53.1964L56.0764 42.704L59.0044 34.328H62.7964L58.0684 47H54.1084ZM68.6237 34.112C69.4557 34.112 70.2077 34.28 70.8797 34.616C71.5677 34.952 72.1437 35.432 72.6077 36.056V34.328H76.2077V47H72.6077V45.296C72.2397 45.888 71.6957 46.36 70.9757 46.712C70.2717 47.048 69.4877 47.216 68.6237 47.216C67.7597 47.216 66.9597 47.056 66.2237 46.736C65.5037 46.4 64.8797 45.944 64.3517 45.368C63.8237 44.792 63.4077 44.104 63.1037 43.304C62.8157 42.504 62.6717 41.624 62.6717 40.664C62.6717 39.688 62.8157 38.8 63.1037 38C63.3917 37.184 63.7917 36.488 64.3037 35.912C64.8317 35.336 65.4637 34.896 66.1997 34.592C66.9357 34.272 67.7437 34.112 68.6237 34.112ZM69.4877 43.856C69.9517 43.856 70.3677 43.776 70.7357 43.616C71.1197 43.456 71.4477 43.24 71.7197 42.968C72.0077 42.68 72.2237 42.344 72.3677 41.96C72.5277 41.576 72.6077 41.152 72.6077 40.688C72.6077 39.744 72.3197 38.976 71.7437 38.384C71.1677 37.792 70.4157 37.496 69.4877 37.496C69.0397 37.496 68.6237 37.576 68.2397 37.736C67.8557 37.896 67.5197 38.12 67.2317 38.408C66.9597 38.68 66.7437 39.016 66.5837 39.416C66.4397 39.8 66.3677 40.224 66.3677 40.688C66.3677 41.136 66.4477 41.56 66.6077 41.96C66.7677 42.344 66.9837 42.68 67.2557 42.968C67.5277 43.24 67.8557 43.456 68.2397 43.616C68.6237 43.776 69.0397 43.856 69.4877 43.856ZM83.3462 30.728V34.328H86.3702V37.208H83.3462V42.416C83.3462 43.104 83.5062 43.56 83.8262 43.784C84.1462 43.992 84.7542 44.064 85.6502 44C85.6982 44 85.8182 43.992 86.0102 43.976C86.2022 43.96 86.3222 43.952 86.3702 43.952V47.024C86.1782 47.056 85.9062 47.088 85.5542 47.12C85.2022 47.152 84.9302 47.168 84.7382 47.168C83.0262 47.28 81.7622 46.992 80.9462 46.304C80.1462 45.6 79.7462 44.512 79.7462 43.04V37.208H77.5862V34.328H79.7462V30.728H83.3462ZM87.6968 30.872C87.6968 30.328 87.8888 29.864 88.2728 29.48C88.6728 29.096 89.1688 28.904 89.7608 28.904C90.3368 28.904 90.8168 29.096 91.2008 29.48C91.6008 29.864 91.8008 30.328 91.8008 30.872C91.8008 31.432 91.6008 31.904 91.2008 32.288C90.8168 32.672 90.3368 32.864 89.7608 32.864C89.1688 32.864 88.6728 32.672 88.2728 32.288C87.8888 31.904 87.6968 31.432 87.6968 30.872ZM87.9608 34.328H91.5368V47H87.9608V34.328ZM99.954 47.216C98.978 47.216 98.074 47.056 97.242 46.736C96.426 46.4 95.722 45.944 95.13 45.368C94.538 44.792 94.074 44.104 93.738 43.304C93.402 42.504 93.234 41.624 93.234 40.664C93.234 39.704 93.402 38.824 93.738 38.024C94.074 37.208 94.538 36.512 95.13 35.936C95.738 35.36 96.45 34.912 97.266 34.592C98.082 34.256 98.978 34.088 99.954 34.088C100.93 34.088 101.826 34.256 102.642 34.592C103.474 34.912 104.186 35.36 104.778 35.936C105.386 36.512 105.858 37.208 106.194 38.024C106.53 38.824 106.698 39.704 106.698 40.664C106.698 41.624 106.53 42.504 106.194 43.304C105.858 44.104 105.386 44.792 104.778 45.368C104.186 45.944 103.474 46.4 102.642 46.736C101.826 47.056 100.93 47.216 99.954 47.216ZM99.954 37.52C99.49 37.52 99.074 37.6 98.706 37.76C98.338 37.92 98.018 38.144 97.746 38.432C97.49 38.704 97.29 39.032 97.146 39.416C97.002 39.8 96.93 40.216 96.93 40.664C96.93 41.096 97.002 41.504 97.146 41.888C97.29 42.272 97.49 42.608 97.746 42.896C98.018 43.168 98.338 43.384 98.706 43.544C99.074 43.704 99.49 43.784 99.954 43.784C100.898 43.784 101.634 43.488 102.162 42.896C102.706 42.288 102.978 41.544 102.978 40.664C102.978 39.768 102.706 39.024 102.162 38.432C101.634 37.824 100.898 37.52 99.954 37.52ZM108.382 34.328H111.982V36.008C112.494 35.4 113.094 34.928 113.782 34.592C114.47 34.256 115.182 34.088 115.918 34.088C116.59 34.088 117.198 34.208 117.742 34.448C118.302 34.688 118.774 35.024 119.158 35.456C119.558 35.888 119.87 36.4 120.094 36.992C120.318 37.584 120.43 38.232 120.43 38.936V47H116.83V39.704C116.83 39 116.63 38.432 116.23 38C115.846 37.568 115.326 37.352 114.67 37.352C114.302 37.352 113.958 37.432 113.638 37.592C113.318 37.736 113.038 37.944 112.798 38.216C112.558 38.488 112.366 38.808 112.222 39.176C112.078 39.544 111.998 39.944 111.982 40.376V47H108.382V34.328ZM122.455 38.096C122.455 36.816 122.911 35.832 123.823 35.144C124.751 34.44 126.055 34.088 127.735 34.088C129.479 34.088 130.799 34.456 131.695 35.192C132.607 35.928 133.079 36.944 133.112 38.24H129.487C129.471 37.776 129.311 37.424 129.007 37.184C128.704 36.928 128.263 36.8 127.687 36.8C127.159 36.8 126.743 36.904 126.439 37.112C126.135 37.304 125.983 37.584 125.983 37.952C125.983 38.4 126.183 38.72 126.583 38.912C126.983 39.088 127.479 39.24 128.071 39.368C128.599 39.48 129.175 39.592 129.799 39.704C130.423 39.816 130.999 40 131.527 40.256C132.071 40.512 132.52 40.872 132.872 41.336C133.224 41.8 133.399 42.432 133.399 43.232C133.399 44.448 132.935 45.416 132.007 46.136C131.095 46.84 129.711 47.192 127.855 47.192C125.935 47.192 124.503 46.824 123.559 46.088C122.631 45.336 122.167 44.32 122.167 43.04H125.743C125.823 44.016 126.527 44.504 127.855 44.504C128.479 44.504 128.951 44.408 129.272 44.216C129.608 44.008 129.776 43.72 129.776 43.352C129.776 43.112 129.704 42.92 129.559 42.776C129.431 42.616 129.247 42.488 129.007 42.392C128.783 42.28 128.511 42.192 128.191 42.128C127.887 42.064 127.559 42 127.207 41.936C126.679 41.84 126.135 41.736 125.575 41.624C125.015 41.496 124.503 41.296 124.039 41.024C123.575 40.752 123.191 40.392 122.887 39.944C122.599 39.48 122.455 38.864 122.455 38.096Z" fill="#FAFAFA"/>
</svg>
