<svg width="160" height="160" viewBox="0 0 160 160" fill="none" xmlns="http://www.w3.org/2000/svg">
<mask id="mask0_39_71" style="mask-type:luminance" maskUnits="userSpaceOnUse" x="0" y="0" width="161" height="160">
<path fill-rule="evenodd" clip-rule="evenodd" d="M36.3734 0.0786133C32.8052 0.20546 28.2064 0.484619 26.1161 0.906509C22.9254 1.55084 19.9122 2.52776 17.4064 3.80492C14.4622 5.30536 11.8235 7.21973 9.54503 9.49463C7.26137 11.7739 5.33932 14.4151 3.83286 17.3636C2.55926 19.856 1.58289 22.8509 0.93582 26.0235C0.505441 28.1349 0.220805 32.7679 0.0917739 36.3592C0.0394491 37.827 0.0126018 39.7266 0.0126018 40.6027L0 119.385C0 120.257 0.0265733 122.157 0.0786242 123.627C0.205464 127.195 0.484621 131.794 0.906781 133.884C1.55084 137.074 2.52803 140.088 3.80492 142.594C5.30563 145.538 7.21973 148.176 9.49463 150.455C11.7739 152.738 14.4154 154.66 17.3636 156.167C19.8563 157.44 22.8512 158.417 26.0235 159.064C28.1349 159.495 32.7682 159.779 36.3595 159.908C37.8267 159.961 39.7266 159.987 40.6027 159.987L119.385 160C120.258 160 122.158 159.974 123.627 159.921C127.195 159.794 131.794 159.515 133.884 159.093C137.075 158.449 140.088 157.472 142.594 156.195C145.538 154.694 148.177 152.78 150.455 150.505C152.738 148.226 154.66 145.585 156.167 142.636C157.44 140.144 158.417 137.149 159.064 133.976C159.495 131.865 159.779 127.232 159.908 123.641C159.961 122.173 159.987 120.273 159.987 119.397L160 40.6153C160 39.7425 159.974 37.8424 159.921 36.3731C159.794 32.8052 159.515 28.2064 159.093 26.1161C158.449 22.9254 157.472 19.9122 156.195 17.4064C154.695 14.4619 152.78 11.8235 150.506 9.54477C148.226 7.26164 145.585 5.33932 142.636 3.83287C140.144 2.55927 137.149 1.58263 133.976 0.935822C131.865 0.505447 127.232 0.22081 123.641 0.0920563C122.173 0.0391846 120.273 0.0126038 119.397 0.0126038L40.6153 0C39.7425 0 37.8424 0.0262909 36.3734 0.0786133Z" fill="white"/>
</mask>
<g mask="url(#mask0_39_71)">
<path d="M36.3734 0.0786133C32.8052 0.20546 28.2064 0.484619 26.1161 0.906509C22.9254 1.55084 19.9122 2.52776 17.4064 3.80492C14.4622 5.30536 11.8235 7.21973 9.54503 9.49463C7.26137 11.7739 5.33932 14.4151 3.83286 17.3636C2.55926 19.856 1.58289 22.8509 0.93582 26.0235C0.505441 28.1349 0.220805 32.7679 0.0917739 36.3592C0.0394491 37.827 0.0126018 39.7266 0.0126018 40.6027L0 119.385C0 120.257 0.0265733 122.157 0.0786242 123.627C0.205464 127.195 0.484621 131.794 0.906781 133.884C1.55084 137.074 2.52803 140.088 3.80492 142.594C5.30563 145.538 7.21973 148.176 9.49463 150.455C11.7739 152.738 14.4154 154.66 17.3636 156.167C19.8563 157.44 22.8512 158.417 26.0235 159.064C28.1349 159.495 32.7682 159.779 36.3595 159.908C37.8267 159.961 39.7266 159.987 40.6027 159.987L119.385 160C120.258 160 122.158 159.974 123.627 159.921C127.195 159.794 131.794 159.515 133.884 159.093C137.075 158.449 140.088 157.472 142.594 156.195C145.538 154.694 148.177 152.78 150.455 150.505C152.738 148.226 154.66 145.585 156.167 142.636C157.44 140.144 158.417 137.149 159.064 133.976C159.495 131.865 159.779 127.232 159.908 123.641C159.961 122.173 159.987 120.273 159.987 119.397L160 40.6153C160 39.7425 159.974 37.8424 159.921 36.3731C159.794 32.8052 159.515 28.2064 159.093 26.1161C158.449 22.9254 157.472 19.9122 156.195 17.4064C154.695 14.4619 152.78 11.8235 150.506 9.54477C148.226 7.26164 145.585 5.33932 142.636 3.83287C140.144 2.55927 137.149 1.58263 133.976 0.935822C131.865 0.505447 127.232 0.22081 123.641 0.0920563C122.173 0.0391846 120.273 0.0126038 119.397 0.0126038L40.6153 0C39.7425 0 37.8424 0.0262909 36.3734 0.0786133Z" fill="url(#paint0_linear_39_71)"/>
<path fill-rule="evenodd" clip-rule="evenodd" d="M107.736 90.5306C106.311 89.8175 99.3047 86.371 97.9983 85.8957C96.6921 85.4203 95.7423 85.1826 94.7922 86.6087C93.8421 88.0349 91.1111 91.2437 90.2797 92.1946C89.4485 93.1452 88.6173 93.2644 87.1922 92.551C85.7671 91.8382 81.1754 90.3337 75.7323 85.4801C71.4959 81.7028 68.6358 77.0371 67.8044 75.6109C66.9732 74.1848 67.7159 73.4139 68.4295 72.7035C69.0703 72.0655 69.8544 71.0398 70.5669 70.2078C71.2794 69.3758 71.517 68.7816 71.992 67.831C72.467 66.8801 72.2295 66.0481 71.8731 65.335C71.517 64.6219 68.667 57.6098 67.4795 54.7575C66.3228 51.9796 65.1479 52.3554 64.2731 52.3119C63.4428 52.2705 62.4919 52.2618 61.5418 52.2618C60.5918 52.2618 59.048 52.6184 57.7416 54.0444C56.4354 55.4706 52.754 58.9174 52.754 65.9292C52.754 72.9413 57.8605 79.7156 58.573 80.6665C59.2856 81.6173 68.6218 96.0069 82.9172 102.178C86.3172 103.646 88.9718 104.522 91.0412 105.179C94.4552 106.263 97.5619 106.11 100.017 105.743C102.755 105.334 108.449 102.297 109.636 98.9689C110.824 95.6412 110.824 92.7888 110.467 92.1946C110.111 91.6004 109.161 91.2437 107.736 90.5306ZM81.7343 126.022H81.7151C73.2089 126.019 64.866 123.735 57.5879 119.417L55.8568 118.39L37.9154 123.095L42.7043 105.608L41.577 103.815C36.8319 96.2697 34.3258 87.549 34.3294 78.5949C34.3398 52.4665 55.6053 31.2092 81.7532 31.2092C94.4147 31.2141 106.317 36.1499 115.267 45.107C124.217 54.0644 129.143 65.9709 129.138 78.6332C129.127 104.764 107.862 126.022 81.7343 126.022ZM122.078 38.3004C111.31 27.5234 96.9902 21.5855 81.7333 21.5795C50.2973 21.5795 24.7121 47.1548 24.6995 78.5911C24.6954 88.6399 27.3215 98.449 32.3124 107.095L24.2212 136.64L54.4556 128.712C62.786 133.254 72.165 135.648 81.7106 135.652H81.7338H81.7341C113.167 135.652 138.754 110.073 138.767 78.6366C138.773 63.4021 132.846 49.0771 122.078 38.3004Z" fill="#0A0A0B"/>
</g>
<defs>
<linearGradient id="paint0_linear_39_71" x1="-0.000171662" y1="160" x2="-0.000171662" y2="-0.000183835" gradientUnits="userSpaceOnUse">
<stop stop-color="#25CF43"/>
<stop offset="1" stop-color="#61FD7D"/>
</linearGradient>
</defs>
</svg>
